<?xml version="1.0" encoding="UTF-8" standalone="no"?>
<!-- Created with Inkscape (http://www.inkscape.org/) -->

<svg
   width="270.93332mm"
   height="270.93332mm"
   viewBox="0 0 270.93332 270.93332"
   version="1.1"
   id="svg5"
   inkscape:version="1.1.2 (b8e25be8, 2022-02-05)"
   sodipodi:docname="notification_icon.svg"
   xmlns:inkscape="http://www.inkscape.org/namespaces/inkscape"
   xmlns:sodipodi="http://sodipodi.sourceforge.net/DTD/sodipodi-0.dtd"
   xmlns="http://www.w3.org/2000/svg"
   xmlns:svg="http://www.w3.org/2000/svg">
  <sodipodi:namedview
     id="namedview7"
     pagecolor="#ffffff"
     bordercolor="#666666"
     borderopacity="1.0"
     inkscape:pageshadow="2"
     inkscape:pageopacity="0.0"
     inkscape:pagecheckerboard="0"
     inkscape:document-units="mm"
     showgrid="false"
     fit-margin-top="0"
     fit-margin-left="0"
     fit-margin-right="0"
     fit-margin-bottom="0"
     inkscape:zoom="0.64052329"
     inkscape:cx="530.03537"
     inkscape:cy="476.17316"
     inkscape:window-width="1378"
     inkscape:window-height="900"
     inkscape:window-x="0"
     inkscape:window-y="38"
     inkscape:window-maximized="0"
     inkscape:current-layer="layer1" />
  <defs
     id="defs2" />
  <g
     inkscape:label="Laag 1"
     inkscape:groupmode="layer"
     id="layer1"
     transform="translate(31.785158,-2.4999609)">
    <path
       style="fill:#000000;stroke-width:0.264583"
       d="m 99.845044,228.28137 c -3.735737,-0.59955 -8.301458,-2.4201 -11.541815,-4.60222 -2.16458,-1.45767 -5.641488,-4.93474 -7.099519,-7.09984 -2.483562,-3.68797 -4.265901,-8.69697 -4.66611,-13.11343 l -0.181168,-1.99926 h 27.288578 c 25.81332,0 27.28849,0.025 27.28701,0.46302 -0.005,1.352 -0.86526,5.87906 -1.44754,7.61366 -3.01087,8.96921 -9.64137,15.32157 -18.79152,18.00321 -1.99062,0.58339 -3.0106,0.71136 -6.21771,0.78006 -2.11005,0.0452 -4.19364,0.0249 -4.630206,-0.0452 z M 28.710482,194.16976 c -3.936404,-0.95649 -7.339303,-3.72926 -9.083069,-7.40113 -0.846269,-1.78201 -0.974783,-2.326 -1.083664,-4.58715 -0.233,-4.83873 1.264266,-8.79829 5.613902,-14.84611 3.219747,-4.4768 4.836388,-7.14197 6.623254,-10.91898 2.592469,-5.47988 4.188415,-11.58798 4.539924,-17.37552 l 0.177731,-2.92633 h 17.917802 17.917802 l 0.175943,1.32632 c 0.537628,4.05284 3.14706,10.17204 5.921978,13.88722 9.436348,12.6338 25.787045,16.85322 39.950175,10.30945 4.5081,-2.08287 9.35588,-6.05636 12.53296,-10.27267 2.74761,-3.64634 5.39913,-9.86424 5.93768,-13.924 l 0.17594,-1.32632 h 17.90429 17.90429 l 0.31406,3.77031 c 0.80055,9.61074 3.96338,17.53723 10.74217,26.92135 4.23969,5.86916 5.98368,10.13722 5.98368,14.64387 0,5.73919 -3.55037,10.43522 -9.49869,12.56382 -1.1174,0.39985 -7.26536,0.43943 -75.16797,0.48388 -63.164136,0.0413 -74.177007,-0.006 -75.500188,-0.32801 z m 148.922058,-6.78461 c 2.89039,-0.99502 4.34969,-3.01839 4.35981,-6.04499 0.0109,-3.25463 -0.88626,-5.34928 -4.41933,-10.31815 -7.00782,-9.85574 -10.22138,-17.0894 -11.71817,-26.37734 l -0.30957,-1.92091 -11.91004,0.0688 -11.91004,0.0688 -0.86591,2.42531 c -4.60305,12.89272 -16.046,22.7961 -29.63716,25.64972 -3.38445,0.7106 -11.984702,0.71525 -15.202831,0.008 -9.550847,-2.09835 -18.064249,-7.52979 -23.821839,-15.19802 -2.330045,-3.10326 -4.890222,-7.91908 -5.844881,-10.9945 l -0.627978,-2.02303 H 53.783104 41.841607 l -0.318691,2.05052 c -0.816758,5.25522 -2.985034,11.71117 -5.620535,16.7349 -1.189379,2.26716 -4.072083,6.71296 -7.634348,11.77395 -1.815547,2.57939 -2.683706,4.82325 -2.842435,7.34663 -0.273386,4.34616 1.796889,6.57775 6.553824,7.06448 1.091406,0.11168 34.012186,0.18908 73.157288,0.17201 66.59464,-0.029 71.25801,-0.0603 72.49583,-0.48646 z M 99.75612,154.88464 c -2.254816,-0.40162 -5.308301,-1.51266 -7.451701,-2.71137 -2.737448,-1.53093 -6.662486,-5.43149 -8.305331,-8.25352 -5.12082,-8.79641 -4.005366,-20.02923 2.696403,-27.15325 3.155945,-3.35479 5.857832,-5.07965 10.106845,-6.45212 3.271284,-1.05666 8.454644,-1.23533 12.009144,-0.41396 4.37963,1.01205 8.70536,3.4775 11.61446,6.61968 1.9761,2.13443 2.94571,3.5782 4.15515,6.18713 1.62697,3.50962 1.98737,5.29315 1.96072,9.70314 -0.0204,3.37599 -0.10964,4.12227 -0.74354,6.21771 -2.34451,7.75007 -8.47526,13.72862 -16.16364,15.76236 -2.41949,0.64001 -7.60382,0.89937 -9.87851,0.4942 z m 6.56764,-11.5095 c 3.86731,-0.91147 6.92068,-3.71673 8.21464,-7.54712 0.47283,-1.39968 0.55494,-2.13929 0.46758,-4.2114 -0.0908,-2.15383 -0.22615,-2.76296 -0.94569,-4.25641 -2.07959,-4.31633 -6.226,-6.77881 -10.99935,-6.53232 -4.96289,0.25628 -8.845134,3.26789 -10.273135,7.96927 -0.448715,1.47729 -0.527815,2.26923 -0.41837,4.18872 0.11597,2.03394 0.270156,2.64056 1.095735,4.31101 1.532186,3.10017 4.290158,5.29509 7.69182,6.1215 1.82691,0.44384 3.14699,0.43279 5.16677,-0.0433 z M 35.421175,125.13433 c 0.0068,-0.83007 0.609235,-5.48398 1.078844,-8.33437 2.013473,-12.22126 6.42707,-23.602385 12.363949,-31.882295 3.333726,-4.649403 8.899255,-10.531948 13.145661,-13.894447 7.084303,-5.609677 15.907305,-10.070732 24.209374,-12.240654 l 2.248958,-0.587814 0.169587,-2.645833 c 0.185058,-2.887165 0.63677,-4.513543 1.873899,-6.746875 1.867767,-3.371797 5.008321,-5.959163 8.685439,-7.15555 2.828264,-0.920205 6.775384,-0.892776 9.311024,0.06471 4.02378,1.519418 7.01016,4.14809 8.77856,7.727048 1.02339,2.071179 1.74086,5.132683 1.74086,7.428362 v 1.403432 l 1.91823,0.464365 c 3.52201,0.852606 7.96524,2.513941 11.9724,4.476506 7.3406,3.595171 11.9029,6.873054 17.86622,12.836368 4.09205,4.092051 6.55844,7.109574 9.30471,11.383928 5.86491,9.128288 9.51417,19.569799 11.30997,32.360899 0.29983,2.1356 0.54514,4.27078 0.54514,4.74485 v 0.86195 h -17.99212 -17.99212 l -0.41286,-1.45521 c -2.23892,-7.89151 -7.0261,-14.54815 -13.61875,-18.93705 -15.31845,-10.197909 -35.747917,-5.963404 -45.951432,9.52455 -1.851893,2.811 -3.401586,6.35647 -4.287591,9.80938 l -0.271563,1.05833 H 53.418283 c -11.824578,0 -17.998534,-0.0908 -17.997108,-0.26458 z"
       id="path902" />
  </g>
</svg>
